<mxfile host="app.diagrams.net" modified="2022-11-13T06:14:04.173Z" agent="5.0 (Windows NT 10.0; Win64; x64) AppleWebKit/537.36 (KHTML, like Gecko) Chrome/103.0.0.0 Safari/537.36" etag="X0stUfvIo2iFHqKQ3etg" version="20.5.3" type="github">
  <diagram id="0P05xgxfEBKsBNsQBKFd" name="第 1 页">
    <mxGraphModel dx="1673" dy="896" grid="1" gridSize="10" guides="1" tooltips="1" connect="1" arrows="1" fold="1" page="1" pageScale="1" pageWidth="3300" pageHeight="4681" math="0" shadow="0">
      <root>
        <mxCell id="0" />
        <mxCell id="1" parent="0" />
        <mxCell id="cgtHpXkvoXOQYlFcVMtd-1" value="&lt;font style=&quot;font-size: 30px;&quot;&gt;明爷爷&lt;/font&gt;" style="ellipse;whiteSpace=wrap;html=1;" vertex="1" parent="1">
          <mxGeometry x="410" y="170" width="160" height="80" as="geometry" />
        </mxCell>
        <mxCell id="cgtHpXkvoXOQYlFcVMtd-2" value="&lt;font style=&quot;font-size: 30px;&quot;&gt;明叔叔&lt;/font&gt;" style="ellipse;whiteSpace=wrap;html=1;" vertex="1" parent="1">
          <mxGeometry x="400" y="360" width="160" height="80" as="geometry" />
        </mxCell>
        <mxCell id="cgtHpXkvoXOQYlFcVMtd-3" value="&lt;font style=&quot;font-size: 30px;&quot;&gt;明爸爸&lt;/font&gt;" style="ellipse;whiteSpace=wrap;html=1;" vertex="1" parent="1">
          <mxGeometry x="600" y="360" width="160" height="80" as="geometry" />
        </mxCell>
        <mxCell id="cgtHpXkvoXOQYlFcVMtd-4" value="&lt;font style=&quot;font-size: 30px;&quot;&gt;明妈妈&lt;/font&gt;" style="ellipse;whiteSpace=wrap;html=1;" vertex="1" parent="1">
          <mxGeometry x="790" y="360" width="160" height="80" as="geometry" />
        </mxCell>
        <mxCell id="cgtHpXkvoXOQYlFcVMtd-5" value="&lt;font style=&quot;font-size: 30px;&quot;&gt;明舅舅&lt;/font&gt;" style="ellipse;whiteSpace=wrap;html=1;" vertex="1" parent="1">
          <mxGeometry x="980" y="360" width="160" height="80" as="geometry" />
        </mxCell>
        <mxCell id="cgtHpXkvoXOQYlFcVMtd-6" value="&lt;font style=&quot;font-size: 30px;&quot;&gt;明奶奶&lt;/font&gt;" style="ellipse;whiteSpace=wrap;html=1;" vertex="1" parent="1">
          <mxGeometry x="600" y="170" width="160" height="80" as="geometry" />
        </mxCell>
        <mxCell id="cgtHpXkvoXOQYlFcVMtd-7" value="&lt;font style=&quot;font-size: 30px;&quot;&gt;明姥爷&lt;/font&gt;" style="ellipse;whiteSpace=wrap;html=1;" vertex="1" parent="1">
          <mxGeometry x="800" y="170" width="160" height="80" as="geometry" />
        </mxCell>
        <mxCell id="cgtHpXkvoXOQYlFcVMtd-8" value="&lt;font style=&quot;font-size: 30px;&quot;&gt;明姥娘&lt;/font&gt;" style="ellipse;whiteSpace=wrap;html=1;" vertex="1" parent="1">
          <mxGeometry x="980" y="170" width="160" height="80" as="geometry" />
        </mxCell>
        <mxCell id="cgtHpXkvoXOQYlFcVMtd-9" value="&lt;font style=&quot;font-size: 30px;&quot;&gt;小明&lt;/font&gt;" style="ellipse;whiteSpace=wrap;html=1;" vertex="1" parent="1">
          <mxGeometry x="700" y="520" width="160" height="80" as="geometry" />
        </mxCell>
        <mxCell id="cgtHpXkvoXOQYlFcVMtd-10" value="&lt;font style=&quot;font-size: 30px;&quot;&gt;小红&lt;/font&gt;" style="ellipse;whiteSpace=wrap;html=1;" vertex="1" parent="1">
          <mxGeometry x="1080" y="520" width="160" height="80" as="geometry" />
        </mxCell>
        <mxCell id="cgtHpXkvoXOQYlFcVMtd-11" value="&lt;font style=&quot;font-size: 30px;&quot;&gt;小刚&lt;/font&gt;" style="ellipse;whiteSpace=wrap;html=1;" vertex="1" parent="1">
          <mxGeometry x="320" y="520" width="160" height="80" as="geometry" />
        </mxCell>
        <mxCell id="cgtHpXkvoXOQYlFcVMtd-12" value="&lt;span style=&quot;font-size: 30px;&quot;&gt;刚妈妈&lt;/span&gt;" style="ellipse;whiteSpace=wrap;html=1;" vertex="1" parent="1">
          <mxGeometry x="200" y="360" width="160" height="80" as="geometry" />
        </mxCell>
        <mxCell id="cgtHpXkvoXOQYlFcVMtd-13" value="&lt;span style=&quot;font-size: 30px;&quot;&gt;红妈妈&lt;/span&gt;" style="ellipse;whiteSpace=wrap;html=1;" vertex="1" parent="1">
          <mxGeometry x="1170" y="360" width="160" height="80" as="geometry" />
        </mxCell>
        <mxCell id="cgtHpXkvoXOQYlFcVMtd-16" value="&lt;font style=&quot;font-size: 30px;&quot;&gt;a1&lt;/font&gt;" style="ellipse;whiteSpace=wrap;html=1;" vertex="1" parent="1">
          <mxGeometry x="20" y="940" width="160" height="80" as="geometry" />
        </mxCell>
        <mxCell id="cgtHpXkvoXOQYlFcVMtd-17" value="&lt;font style=&quot;font-size: 30px;&quot;&gt;a2&lt;/font&gt;" style="ellipse;whiteSpace=wrap;html=1;" vertex="1" parent="1">
          <mxGeometry x="220" y="940" width="160" height="80" as="geometry" />
        </mxCell>
        <mxCell id="cgtHpXkvoXOQYlFcVMtd-18" value="&lt;font style=&quot;font-size: 30px;&quot;&gt;a3&lt;/font&gt;" style="ellipse;whiteSpace=wrap;html=1;" vertex="1" parent="1">
          <mxGeometry x="420" y="940" width="160" height="80" as="geometry" />
        </mxCell>
        <mxCell id="cgtHpXkvoXOQYlFcVMtd-19" value="&lt;font style=&quot;font-size: 30px;&quot;&gt;B1&lt;/font&gt;" style="ellipse;whiteSpace=wrap;html=1;" vertex="1" parent="1">
          <mxGeometry x="1130" y="800" width="160" height="80" as="geometry" />
        </mxCell>
        <mxCell id="cgtHpXkvoXOQYlFcVMtd-20" value="&lt;font style=&quot;font-size: 30px;&quot;&gt;B2&lt;/font&gt;" style="ellipse;whiteSpace=wrap;html=1;" vertex="1" parent="1">
          <mxGeometry x="1390" y="800" width="160" height="80" as="geometry" />
        </mxCell>
        <mxCell id="cgtHpXkvoXOQYlFcVMtd-21" value="&lt;font style=&quot;font-size: 30px;&quot;&gt;b1&lt;/font&gt;" style="ellipse;whiteSpace=wrap;html=1;" vertex="1" parent="1">
          <mxGeometry x="960" y="940" width="160" height="80" as="geometry" />
        </mxCell>
        <mxCell id="cgtHpXkvoXOQYlFcVMtd-22" value="&lt;font style=&quot;font-size: 30px;&quot;&gt;b2&lt;/font&gt;" style="ellipse;whiteSpace=wrap;html=1;" vertex="1" parent="1">
          <mxGeometry x="1160" y="940" width="160" height="80" as="geometry" />
        </mxCell>
        <mxCell id="cgtHpXkvoXOQYlFcVMtd-23" value="&lt;font style=&quot;font-size: 30px;&quot;&gt;b3&lt;/font&gt;" style="ellipse;whiteSpace=wrap;html=1;" vertex="1" parent="1">
          <mxGeometry x="1360" y="940" width="160" height="80" as="geometry" />
        </mxCell>
        <mxCell id="cgtHpXkvoXOQYlFcVMtd-24" value="&lt;font style=&quot;font-size: 30px;&quot;&gt;a4&lt;/font&gt;" style="ellipse;whiteSpace=wrap;html=1;" vertex="1" parent="1">
          <mxGeometry x="620" y="940" width="160" height="80" as="geometry" />
        </mxCell>
        <mxCell id="cgtHpXkvoXOQYlFcVMtd-25" value="&lt;font style=&quot;font-size: 30px;&quot;&gt;b4&lt;/font&gt;" style="ellipse;whiteSpace=wrap;html=1;" vertex="1" parent="1">
          <mxGeometry x="1560" y="940" width="160" height="80" as="geometry" />
        </mxCell>
        <mxCell id="cgtHpXkvoXOQYlFcVMtd-26" value="&lt;font style=&quot;font-size: 30px;&quot;&gt;A1&lt;/font&gt;" style="ellipse;whiteSpace=wrap;html=1;" vertex="1" parent="1">
          <mxGeometry x="190" y="810" width="160" height="80" as="geometry" />
        </mxCell>
        <mxCell id="cgtHpXkvoXOQYlFcVMtd-27" value="&lt;font style=&quot;font-size: 30px;&quot;&gt;A2&lt;/font&gt;" style="ellipse;whiteSpace=wrap;html=1;" vertex="1" parent="1">
          <mxGeometry x="450" y="810" width="160" height="80" as="geometry" />
        </mxCell>
        <mxCell id="cgtHpXkvoXOQYlFcVMtd-28" value="&lt;font style=&quot;font-size: 30px;&quot;&gt;A仓&lt;/font&gt;" style="ellipse;whiteSpace=wrap;html=1;" vertex="1" parent="1">
          <mxGeometry x="180" y="1350" width="160" height="80" as="geometry" />
        </mxCell>
        <mxCell id="cgtHpXkvoXOQYlFcVMtd-40" style="rounded=0;orthogonalLoop=1;jettySize=auto;html=1;exitX=0.5;exitY=0;exitDx=0;exitDy=0;entryX=1;entryY=1;entryDx=0;entryDy=0;fontSize=30;endArrow=none;endFill=0;" edge="1" parent="1" source="cgtHpXkvoXOQYlFcVMtd-29" target="cgtHpXkvoXOQYlFcVMtd-38">
          <mxGeometry relative="1" as="geometry" />
        </mxCell>
        <mxCell id="cgtHpXkvoXOQYlFcVMtd-29" value="&lt;font style=&quot;font-size: 30px;&quot;&gt;B仓&lt;/font&gt;" style="ellipse;whiteSpace=wrap;html=1;" vertex="1" parent="1">
          <mxGeometry x="390" y="1350" width="160" height="80" as="geometry" />
        </mxCell>
        <mxCell id="cgtHpXkvoXOQYlFcVMtd-45" style="edgeStyle=none;rounded=0;orthogonalLoop=1;jettySize=auto;html=1;exitX=0.5;exitY=0;exitDx=0;exitDy=0;entryX=0.5;entryY=1;entryDx=0;entryDy=0;fontSize=30;endArrow=none;endFill=0;" edge="1" parent="1" source="cgtHpXkvoXOQYlFcVMtd-30" target="cgtHpXkvoXOQYlFcVMtd-39">
          <mxGeometry relative="1" as="geometry" />
        </mxCell>
        <mxCell id="cgtHpXkvoXOQYlFcVMtd-30" value="&lt;font style=&quot;font-size: 30px;&quot;&gt;C仓&lt;/font&gt;" style="ellipse;whiteSpace=wrap;html=1;" vertex="1" parent="1">
          <mxGeometry x="600" y="1350" width="160" height="80" as="geometry" />
        </mxCell>
        <mxCell id="cgtHpXkvoXOQYlFcVMtd-42" style="edgeStyle=none;rounded=0;orthogonalLoop=1;jettySize=auto;html=1;exitX=0.5;exitY=0;exitDx=0;exitDy=0;entryX=0.5;entryY=1;entryDx=0;entryDy=0;fontSize=30;endArrow=none;endFill=0;" edge="1" parent="1" source="cgtHpXkvoXOQYlFcVMtd-32" target="cgtHpXkvoXOQYlFcVMtd-28">
          <mxGeometry relative="1" as="geometry" />
        </mxCell>
        <mxCell id="cgtHpXkvoXOQYlFcVMtd-32" value="&lt;font style=&quot;font-size: 30px;&quot;&gt;金&lt;/font&gt;" style="ellipse;whiteSpace=wrap;html=1;" vertex="1" parent="1">
          <mxGeometry x="180" y="1460" width="160" height="80" as="geometry" />
        </mxCell>
        <mxCell id="cgtHpXkvoXOQYlFcVMtd-43" style="edgeStyle=none;rounded=0;orthogonalLoop=1;jettySize=auto;html=1;exitX=0.5;exitY=0;exitDx=0;exitDy=0;entryX=0.5;entryY=1;entryDx=0;entryDy=0;fontSize=30;endArrow=none;endFill=0;" edge="1" parent="1" source="cgtHpXkvoXOQYlFcVMtd-33" target="cgtHpXkvoXOQYlFcVMtd-29">
          <mxGeometry relative="1" as="geometry" />
        </mxCell>
        <mxCell id="cgtHpXkvoXOQYlFcVMtd-33" value="&lt;font style=&quot;font-size: 30px;&quot;&gt;银&lt;/font&gt;" style="ellipse;whiteSpace=wrap;html=1;" vertex="1" parent="1">
          <mxGeometry x="390" y="1460" width="160" height="80" as="geometry" />
        </mxCell>
        <mxCell id="cgtHpXkvoXOQYlFcVMtd-44" style="edgeStyle=none;rounded=0;orthogonalLoop=1;jettySize=auto;html=1;exitX=0.5;exitY=0;exitDx=0;exitDy=0;entryX=0.5;entryY=1;entryDx=0;entryDy=0;fontSize=30;endArrow=none;endFill=0;" edge="1" parent="1" source="cgtHpXkvoXOQYlFcVMtd-34" target="cgtHpXkvoXOQYlFcVMtd-30">
          <mxGeometry relative="1" as="geometry" />
        </mxCell>
        <mxCell id="cgtHpXkvoXOQYlFcVMtd-34" value="&lt;font style=&quot;font-size: 30px;&quot;&gt;铜&lt;/font&gt;" style="ellipse;whiteSpace=wrap;html=1;" vertex="1" parent="1">
          <mxGeometry x="600" y="1460" width="160" height="80" as="geometry" />
        </mxCell>
        <mxCell id="cgtHpXkvoXOQYlFcVMtd-35" value="" style="endArrow=none;html=1;rounded=0;fontSize=30;" edge="1" parent="1">
          <mxGeometry width="50" height="50" relative="1" as="geometry">
            <mxPoint x="255" y="1350" as="sourcePoint" />
            <mxPoint x="305" y="1300" as="targetPoint" />
          </mxGeometry>
        </mxCell>
        <mxCell id="cgtHpXkvoXOQYlFcVMtd-38" value="&lt;span style=&quot;font-size: 30px;&quot;&gt;1号管理员&lt;/span&gt;" style="ellipse;whiteSpace=wrap;html=1;" vertex="1" parent="1">
          <mxGeometry x="280" y="1230" width="160" height="80" as="geometry" />
        </mxCell>
        <mxCell id="cgtHpXkvoXOQYlFcVMtd-39" value="&lt;span style=&quot;font-size: 30px;&quot;&gt;2号管理员&lt;/span&gt;" style="ellipse;whiteSpace=wrap;html=1;" vertex="1" parent="1">
          <mxGeometry x="600" y="1220" width="160" height="80" as="geometry" />
        </mxCell>
      </root>
    </mxGraphModel>
  </diagram>
</mxfile>
